<svg
	width="20" height="20" viewBox="0 0 20 20"
	xmlns="http://www.w3.org/2000/svg">
	<path id="download" fill="white"
		d="M 9.51,3.01
		C 9.78,3.01 10.00,3.23 10.00,3.51
			10.00,3.51 10.00,3.51 10.00,3.51
			10.00,3.51 10.00,12.30 10.00,12.30
			10.00,12.30 13.15,9.16 13.15,9.16
			13.24,9.06 13.37,9.00 13.51,9.00
			13.78,9.00 14.01,9.23 14.01,9.50
			14.01,9.65 13.95,9.77 13.85,9.87
			13.85,9.87 9.90,13.82 9.90,13.82
			9.81,13.94 9.66,14.02 9.50,14.02
			9.34,14.02 9.19,13.94 9.10,13.82
			9.10,13.82 9.10,13.82 9.10,13.82
			9.10,13.82 5.15,9.87 5.15,9.87
			5.05,9.77 4.99,9.65 4.99,9.50
			4.99,9.23 5.22,9.00 5.49,9.00
			5.63,9.00 5.76,9.06 5.85,9.16
			5.85,9.16 9.00,12.30 9.00,12.30
			9.00,12.30 9.00,3.51 9.00,3.51
			9.00,3.51 9.00,3.51 9.00,3.51
			9.00,3.23 9.22,3.01 9.50,3.01
			9.50,3.01 9.51,3.01 9.51,3.01
			9.51,3.01 9.51,3.01 9.51,3.01 Z
		M 15.51,12.99
		C 15.78,13.00 16.00,13.22 16.00,13.49
			16.00,13.49 16.00,13.50 16.00,13.50
			16.00,13.50 16.00,16.50 16.00,16.50
			16.00,16.78 15.78,17.00 15.50,17.00
			15.50,17.00 3.50,17.00 3.50,17.00
			3.22,17.00 3.00,16.78 3.00,16.50
			3.00,16.50 3.00,13.50 3.00,13.50
			3.00,13.50 3.00,13.50 3.00,13.49
			3.00,13.22 3.22,12.99 3.50,12.99
			3.78,12.99 4.00,13.22 4.00,13.49
			4.00,13.50 4.00,13.50 4.00,13.50
			4.00,13.50 4.00,16.00 4.00,16.00
			4.00,16.00 15.00,16.00 15.00,16.00
			15.00,16.00 15.00,13.50 15.00,13.50
			15.00,13.50 15.00,13.49 15.00,13.49
			15.00,13.22 15.22,12.99 15.50,12.99
			15.50,12.99 15.51,12.99 15.51,12.99
			15.51,12.99 15.51,12.99 15.51,12.99 Z" />
</svg>
