<svg
	width="20" height="20" viewBox="0 0 20 20"
	xmlns="http://www.w3.org/2000/svg">
	<path id="file" fill="white"
			d="M 9.48,3.00
				C 9.33,3.00 9.19,3.08 9.10,3.20
					9.10,3.20 4.15,8.15 4.15,8.15
					3.83,8.46 4.05,9.00 4.50,9.00
					4.50,9.00 9.50,9.00 9.50,9.00
					9.78,9.00 10.00,8.78 10.00,8.50
					10.00,8.50 10.00,4.00 10.00,4.00
					10.00,4.00 15.00,4.00 15.00,4.00
					15.00,4.00 15.00,16.00 15.00,16.00
					15.00,16.00 5.00,16.00 5.00,16.00
					5.00,16.00 5.00,10.00 5.00,10.00
					5.00,10.00 4.00,10.00 4.00,10.00
					4.00,10.00 4.00,16.50 4.00,16.50
					4.00,16.78 4.22,17.00 4.50,17.00
					4.50,17.00 15.50,17.00 15.50,17.00
					15.78,17.00 16.00,16.78 16.00,16.50
					16.00,16.50 16.00,3.50 16.00,3.50
					16.00,3.22 15.78,3.00 15.50,3.00
					15.50,3.00 9.50,3.00 9.50,3.00
					9.50,3.00 9.49,3.00 9.49,3.00
					9.49,3.00 9.49,3.00 9.48,3.00
					9.48,3.00 9.48,3.00 9.48,3.00
					9.48,3.00 9.48,3.00 9.48,3.00 Z" />
</svg>
