<svg
	width="20" height="20" viewBox="0 0 20 20"
	xmlns="http://www.w3.org/2000/svg">
	<path id="folder" fill="white"
		d="M 3.50,4.00
		C 3.22,4.00 3.00,4.22 3.00,4.50
			3.00,4.50 3.00,8.00 3.00,8.00
			3.00,8.00 17.00,8.00 17.00,8.00
			17.00,8.00 17.00,6.50 17.00,6.50
			17.00,6.22 16.78,6.00 16.50,6.00
			16.50,6.00 8.00,6.00 8.00,6.00
			8.00,6.00 8.00,4.50 8.00,4.50
			8.00,4.22 7.78,4.00 7.50,4.00
			7.50,4.00 3.50,4.00 3.50,4.00 Z
		M 3.50,9.00
		C 3.22,9.00 3.00,9.22 3.00,9.50
			3.00,9.50 3.00,16.50 3.00,16.50
			3.00,16.78 3.22,17.00 3.50,17.00
			3.50,17.00 16.50,17.00 16.50,17.00
			16.78,17.00 17.00,16.78 17.00,16.50
			17.00,16.50 17.00,9.50 17.00,9.50
			17.00,9.22 16.78,9.00 16.50,9.00
			16.50,9.00 3.50,9.00 3.50,9.00 Z" />
</svg>
