<svg
	xmlns="http://www.w3.org/2000/svg"
	id="blenderhub"
	width="20" height="20"
	viewBox="0 0 32 32"
	fill="#424248"
>
	<path
		fill-rule="evenodd"
		clip-rule="evenodd"
		d="M6.99007 1C8.64109 1 9.97951 2.30132 9.97951 3.90657V6.0331C11.9166 5.00845 14.1378 4.42561 16.5 4.42561C21.8125 4.42561 26.4117 7.37355 28.671 11.6653C29.4233 13.0943 28.8417 14.8456 27.372 15.577C25.9023 16.3084 24.1011 15.7429 23.3488 14.3139C22.072 11.8886 19.4816 10.2388 16.5 10.2388C13.5184 10.2388 10.928 11.8886 9.65118 14.3139C9.02188 15.5093 7.63224 16.1299 6.28953 15.8153C4.94682 15.5006 4.00063 14.3325 4.00063 12.9896V3.90657C4.00063 2.30132 5.33905 1 6.99007 1ZM5.628 19.8486C7.0977 19.1172 8.89893 19.6827 9.65118 21.1117C10.928 23.537 13.5184 25.1869 16.5 25.1869C19.4816 25.1869 22.072 23.537 23.3488 21.1117C24.1011 19.6827 25.9023 19.1172 27.372 19.8486C28.8417 20.58 29.4233 22.3313 28.671 23.7603C26.4117 28.0521 21.8125 31 16.5 31C11.1875 31 6.58828 28.0521 4.32896 23.7603C3.57671 22.3313 4.15831 20.58 5.628 19.8486Z" />
	
	<path d="M21.5766 17.7128C21.5766 20.4647 19.2822 22.6955 16.4519 22.6955C13.6215 22.6955 11.3271 20.4647 11.3271 17.7128C11.3271 14.9609 13.6215 12.7301 16.4519 12.7301C19.2822 12.7301 21.5766 14.9609 21.5766 17.7128Z" />
</svg>
