<svg
	width="20" height="20" viewBox="0 -1 20 20"
	xmlns="http://www.w3.org/2000/svg">
	<path id="settings" fill="white"
		d="M 9.00,3.00
		C 9.00,3.00 8.84,4.91 8.84,4.91
			8.22,5.05 7.77,5.16 7.25,5.50
			7.25,5.50 5.50,4.00 5.50,4.00
			5.50,4.00 4.00,5.50 4.00,5.50
			4.00,5.50 5.50,7.25 5.50,7.25
			5.16,7.77 5.05,8.22 4.91,8.84
			4.91,8.84 3.00,9.00 3.00,9.00
			3.00,9.00 3.00,10.00 3.00,10.00
			3.00,10.00 3.00,11.00 3.00,11.00
			3.00,11.00 4.91,11.16 4.91,11.16
			5.05,11.78 5.16,12.23 5.50,12.75
			5.50,12.75 4.00,14.50 4.00,14.50
			4.00,14.50 5.50,16.00 5.50,16.00
			5.50,16.00 7.25,14.50 7.25,14.50
			7.77,14.84 8.22,14.95 8.84,15.09
			8.84,15.09 9.00,17.00 9.00,17.00
			9.00,17.00 10.00,17.00 10.00,17.00
			10.00,17.00 11.00,17.00 11.00,17.00
			11.00,17.00 11.16,15.09 11.16,15.09
			11.78,14.95 12.23,14.84 12.75,14.50
			12.75,14.50 14.50,16.00 14.50,16.00
			14.50,16.00 16.00,14.50 16.00,14.50
			16.00,14.50 14.50,12.75 14.50,12.75
			14.84,12.23 14.95,11.78 15.09,11.16
			15.09,11.16 17.00,11.00 17.00,11.00
			17.00,11.00 17.00,10.00 17.00,10.00
			17.00,10.00 17.00,9.00 17.00,9.00
			17.00,9.00 15.09,8.84 15.09,8.84
			14.95,8.22 14.84,7.77 14.50,7.25
			14.50,7.25 16.00,5.50 16.00,5.50
			16.00,5.50 14.50,4.00 14.50,4.00
			14.50,4.00 12.75,5.50 12.75,5.50
			12.23,5.16 11.78,5.05 11.16,4.91
			11.16,4.91 11.00,3.00 11.00,3.00
			11.00,3.00 10.00,3.00 10.00,3.00
			10.00,3.00 9.00,3.00 9.00,3.00 Z
		M 9.93,8.00
		C 11.05,8.00 11.93,8.88 11.93,10.00
			11.93,11.12 11.05,12.00 9.93,12.00
			8.81,12.00 7.93,11.12 7.93,10.00
			7.93,8.88 8.81,8.00 9.93,8.00 Z" />
</svg>
